# Blender 3.6.0
# www.blender.org
mtllib Track.mtl
o Plane.001__0
v -63.408634 -0.008382 -0.774287
v -63.408634 -0.008383 -5.492351
v -21.495480 -0.008383 -5.492351
v -21.495480 -0.008382 -0.774287
v -63.408634 0.101853 -0.774287
v -21.495480 0.101853 -0.774287
v -21.495480 0.101852 -5.492351
v -63.408634 0.101852 -5.492351
v -21.495480 -0.008383 -5.492351
v -63.408634 -0.008383 -5.492351
v -63.408634 0.101852 -5.492351
v -21.495480 0.101852 -5.492351
v -63.408634 -0.008382 -0.774287
v -21.495480 -0.008382 -0.774287
v -21.495480 0.101853 -0.774287
v -63.408634 0.101853 -0.774287
v -21.495480 -0.008382 -0.774287
v -21.495480 -0.008383 -5.492351
v -21.495480 0.101852 -5.492351
v -21.495480 0.101853 -0.774287
v -63.408634 -0.008383 -5.492351
v -63.408634 -0.008382 -0.774287
v -63.408634 0.101853 -0.774287
v -63.408634 0.101852 -5.492351
v -21.495480 -0.008382 -0.774287
v -21.495480 -0.008383 -5.492351
v 20.417677 -0.008383 -5.492351
v 20.417677 -0.008382 -0.774287
v -21.495480 0.101853 -0.774287
v 20.417677 0.101853 -0.774287
v 20.417677 0.101852 -5.492351
v -21.495480 0.101852 -5.492351
v 20.417677 -0.008383 -5.492351
v -21.495480 -0.008383 -5.492351
v -21.495480 0.101852 -5.492351
v 20.417677 0.101852 -5.492351
v -21.495480 -0.008382 -0.774287
v 20.417677 -0.008382 -0.774287
v 20.417677 0.101853 -0.774287
v -21.495480 0.101853 -0.774287
v 20.417677 -0.008382 -0.774287
v 20.417677 -0.008383 -5.492351
v 20.417677 0.101852 -5.492351
v 20.417677 0.101853 -0.774287
v -21.495480 -0.008383 -5.492351
v -21.495480 -0.008382 -0.774287
v -21.495480 0.101853 -0.774287
v -21.495480 0.101852 -5.492351
v 20.417677 -0.008382 -0.774287
v 20.417677 -0.008383 -5.492351
v 62.330837 -0.008383 -5.492351
v 62.330837 -0.008382 -0.774287
v 20.417677 0.101853 -0.774287
v 62.330837 0.101853 -0.774287
v 62.330837 0.101852 -5.492351
v 20.417677 0.101852 -5.492351
v 62.330837 -0.008383 -5.492351
v 20.417677 -0.008383 -5.492351
v 20.417677 0.101852 -5.492351
v 62.330837 0.101852 -5.492351
v 20.417677 -0.008382 -0.774287
v 62.330837 -0.008382 -0.774287
v 62.330837 0.101853 -0.774287
v 20.417677 0.101853 -0.774287
v 62.330837 -0.008382 -0.774287
v 62.330837 -0.008383 -5.492351
v 62.330837 0.101852 -5.492351
v 62.330837 0.101853 -0.774287
v 20.417677 -0.008383 -5.492351
v 20.417677 -0.008382 -0.774287
v 20.417677 0.101853 -0.774287
v 20.417677 0.101852 -5.492351
vn -0.0000 -1.0000 -0.0000
vn -0.0000 1.0000 -0.0000
vn -0.0000 -0.0000 -1.0000
vn -0.0000 -0.0000 1.0000
vn 1.0000 -0.0000 -0.0000
vn -1.0000 -0.0000 -0.0000
vt 0.219129 0.219261
vt 0.219129 0.780739
vt 0.780270 0.780739
vt 0.780270 0.219261
vt 0.000100 0.999900
vt 0.999299 0.999900
vt 0.999299 0.000100
vt 0.000100 0.000100
vt 0.476883 0.111829
vt 0.476883 0.877800
vt 0.491992 0.877800
vt 0.491992 0.111829
vt 0.549951 0.872991
vt 0.549950 0.147763
vt 0.535645 0.147763
vt 0.535645 0.872991
vt 0.463937 0.881050
vt 0.463938 0.100476
vt 0.443421 0.100476
vt 0.443420 0.881049
vt 0.148768 0.886303
vt 0.148768 0.112794
vt 0.128436 0.112794
vt 0.128436 0.886303
s 0
usemtl Scene_-_Root.001
f 1/1/1 2/2/1 3/3/1
f 1/1/1 3/3/1 4/4/1
f 5/5/2 6/6/2 7/7/2
f 5/5/2 7/7/2 8/8/2
f 9/9/3 10/10/3 11/11/3
f 9/9/3 11/11/3 12/12/3
f 13/13/4 14/14/4 15/15/4
f 13/13/4 15/15/4 16/16/4
f 17/17/5 18/18/5 19/19/5
f 17/17/5 19/19/5 20/20/5
f 21/21/6 22/22/6 23/23/6
f 21/21/6 23/23/6 24/24/6
f 25/1/1 26/2/1 27/3/1
f 25/1/1 27/3/1 28/4/1
f 29/5/2 30/6/2 31/7/2
f 29/5/2 31/7/2 32/8/2
f 33/9/3 34/10/3 35/11/3
f 33/9/3 35/11/3 36/12/3
f 37/13/4 38/14/4 39/15/4
f 37/13/4 39/15/4 40/16/4
f 41/17/5 42/18/5 43/19/5
f 41/17/5 43/19/5 44/20/5
f 45/21/6 46/22/6 47/23/6
f 45/21/6 47/23/6 48/24/6
f 49/1/1 50/2/1 51/3/1
f 49/1/1 51/3/1 52/4/1
f 53/5/2 54/6/2 55/7/2
f 53/5/2 55/7/2 56/8/2
f 57/9/3 58/10/3 59/11/3
f 57/9/3 59/11/3 60/12/3
f 61/13/4 62/14/4 63/15/4
f 61/13/4 63/15/4 64/16/4
f 65/17/5 66/18/5 67/19/5
f 65/17/5 67/19/5 68/20/5
f 69/21/6 70/22/6 71/23/6
f 69/21/6 71/23/6 72/24/6
